<svg xmlns="http://www.w3.org/2000/svg" width="108" height="48" fill="none"><g clip-path="url(#a)"><g clip-path="url(#b)"><g clip-path="url(#c)"><path fill="#1C4B82" d="M106.262 24.638H1.738c-.59 0-1.067.308-1.067.688 0 .38.478.688 1.067.688h104.524c.589 0 1.066-.308 1.066-.688 0-.38-.477-.688-1.066-.688ZM106.262 27.816H1.738c-.59 0-1.067.308-1.067.688 0 .38.478.688 1.067.688h104.524c.589 0 1.066-.308 1.066-.688 0-.38-.477-.688-1.066-.688Z"/><g clip-path="url(#d)"><g clip-path="url(#e)"><g clip-path="url(#f)"><g clip-path="url(#g)"><path fill="#1C4B82" d="M.94 47.8V33.053h4.644c1.806 0 3.207.61 4.205 1.827.994 1.218 1.492 2.995 1.492 5.331 0 2.48-.498 4.364-1.492 5.654-.998 1.29-2.4 1.935-4.205 1.935H.941Zm2.15-1.957h2.3c1.147 0 2.04-.43 2.679-1.29.636-.86.954-2.127.954-3.804v-1.075c0-1.533-.318-2.694-.954-3.482-.64-.788-1.532-1.183-2.678-1.183h-2.3v10.834ZM13.668 47.8V33.053h9.179v1.956h-7.03v4.278H21.9v1.935h-6.084v4.621h7.158V47.8h-9.307Zm14.918 0-4.493-14.747h2.343l3.461 11.995h.086l3.547-11.995h2.107L31.143 47.8h-2.558Zm8.594 0V33.053h9.179v1.956h-7.03v4.278h6.084v1.935H39.33v4.621h7.158V47.8h-9.308Zm11.758 0V33.053h2.15v12.748h6.105V47.8h-8.255Zm15.52.258c-1.877 0-3.331-.642-4.363-1.926-1.032-1.282-1.548-3.183-1.548-5.706 0-2.522.516-4.425 1.548-5.709 1.032-1.281 2.486-1.922 4.364-1.922 1.877 0 3.332.64 4.363 1.922 1.032 1.284 1.548 3.187 1.548 5.71 0 2.522-.516 4.423-1.548 5.705-1.031 1.284-2.486 1.925-4.363 1.925Zm0-1.935c1.162 0 2.06-.441 2.696-1.324.64-.88.96-2.158.96-3.835v-1.075c0-1.677-.32-2.956-.96-3.84-.636-.88-1.535-1.32-2.695-1.32-1.161 0-2.061.44-2.7 1.32-.637.884-.955 2.163-.955 3.84v1.075c0 1.677.319 2.955.955 3.835.639.883 1.539 1.324 2.7 1.324Zm8.298 1.677V33.053h5.267c1.433 0 2.536.394 3.31 1.183.774.788 1.161 1.841 1.161 3.16 0 1.332-.406 2.403-1.217 3.211-.808.811-1.893 1.217-3.254 1.217h-3.117V47.8h-2.15Zm2.15-7.911h2.988c.716 0 1.285-.226 1.707-.68.424-.45.636-1.054.636-1.814 0-.745-.205-1.33-.615-1.754-.407-.42-.983-.632-1.728-.632h-2.988v4.88Zm9.604 7.91V33.054h9.18v1.956h-7.03v4.278h6.083v1.935H86.66v4.621h7.158V47.8H84.51Zm11.759 0V33.054h5.997c1.433 0 2.534.376 3.302 1.127.765.753 1.148 1.754 1.148 3 0 .903-.229 1.691-.688 2.365-.459.674-1.089 1.154-1.892 1.44l2.924 6.815h-2.386l-2.644-6.406h-3.612V47.8h-2.15Zm2.15-8.34h3.697c.716 0 1.279-.208 1.689-.623.407-.416.611-.968.611-1.655 0-.674-.194-1.204-.581-1.591-.387-.387-.953-.58-1.698-.58h-3.719v4.45Z"/></g></g></g></g><g clip-path="url(#h)"><g clip-path="url(#i)"><path fill="#1C4B82" d="M47.8 2.748a.727.727 0 0 0-1.029 0l-7.226 7.226a.727.727 0 0 0 0 1.029l7.226 7.226a.724.724 0 0 0 1.029 0 .727.727 0 0 0 0-1.029l-6.712-6.711L47.8 3.777a.727.727 0 0 0 0-1.029Zm20.655 7.226-7.227-7.226A.727.727 0 1 0 60.2 3.777l6.712 6.712L60.2 17.2a.727.727 0 0 0 1.028 1.029l7.227-7.226a.728.728 0 0 0 0-1.029ZM58.803.01a.728.728 0 0 0-.964.358l-9 19.638a.727.727 0 1 0 1.322.605l9-19.637a.727.727 0 0 0-.358-.964Z"/></g></g></g></g></g><defs><clipPath id="a"><path fill="#fff" d="M.548 0h106.904v48H.548z"/></clipPath><clipPath id="b"><path fill="#fff" d="M.671-.058h106.657v48.115H.671z"/></clipPath><clipPath id="c"><path fill="#fff" d="M.671-.058h106.657v48.115H.671z"/></clipPath><clipPath id="d"><path fill="#fff" d="M.937 32.795h106.126v15.262H.937z"/></clipPath><clipPath id="e"><path fill="#fff" d="M.937 32.795h106.126v15.262H.937z"/></clipPath><clipPath id="f"><path fill="#fff" d="M.937 32.795h106.126v15.262H.937z"/></clipPath><clipPath id="g"><path fill="#fff" d="M.937 32.795h106.126v15.262H.937z"/></clipPath><clipPath id="h"><path fill="#fff" d="M39.332-.058h29.336v21.092H39.332z"/></clipPath><clipPath id="i"><path fill="#fff" d="M39.332-.058h29.336v21.092H39.332z"/></clipPath></defs></svg>